<svg xmlns="http://www.w3.org/2000/svg" xml:space="preserve" width="511.997" height="377.837" style="shape-rendering:geometricPrecision;text-rendering:geometricPrecision;image-rendering:optimizeQuality;fill-rule:evenodd;clip-rule:evenodd" viewBox="0 0 14083 10393"><path d="M7042 9513H440c-243 0-440 197-440 440s197 440 440 440h6602c243 0 440-197 440-440s-197-440-440-440zm6601-4977H440c-243 0-440 197-440 440s197 440 440 440h13203c243 0 440-197 440-440s-197-440-440-440zM0 440C0 197 197 0 440 0h13203c243 0 440 197 440 440s-197 440-440 440H440C197 880 0 683 0 440z" style="fill:#000"/></svg>