<svg xmlns="http://www.w3.org/2000/svg" xml:space="preserve" width="512.028" height="377.837" style="shape-rendering:geometricPrecision;text-rendering:geometricPrecision;image-rendering:optimizeQuality;fill-rule:evenodd;clip-rule:evenodd" viewBox="0 0 14085 10393"><path d="M440 9513c-243 0-440 197-440 440s197 440 440 440l13205-1c243 0 440-197 440-440s-198-440-440-440l-13205 1zm13204-4976H440c-243 0-440 197-440 440s197 440 440 440h13204c243 0 440-197 440-440s-197-440-440-440zM0 440C0 197 197 0 440 0h13204c243 0 440 197 440 440s-197 440-440 440H440C197 880 0 683 0 440z" style="fill:#000"/></svg>