<svg xmlns="http://www.w3.org/2000/svg" xml:space="preserve" width="391.022" height="391.03" style="shape-rendering:geometricPrecision;text-rendering:geometricPrecision;image-rendering:optimizeQuality;fill-rule:evenodd;clip-rule:evenodd" viewBox="0 0 7595 7595"><path d="M7519 1131H5118V76c0-21-8-40-22-54-14-13-33-22-54-22H2553c-22 0-41 9-54 22-14 14-23 33-23 54v490H76c-21 0-40 8-54 22-13 14-22 33-22 54v6311c0 21 9 40 22 54 14 14 33 22 54 22h2477c21 0 40-8 53-22 14-14 23-33 23-54v-489h2337v1055c0 21 9 40 22 53v1c14 13 33 22 54 22h2477c21 0 40-9 53-23 14-13 23-32 23-53V1207c0-21-9-40-23-54-13-13-32-22-53-22zM1733 5134c-21 0-40 8-54 22-13 14-22 33-22 54v565c0 22 9 41 23 54 13 14 32 23 53 23s40-9 54-23c14-13 23-32 23-54v-565c0-21-9-40-23-54-13-13-32-22-52-22h-2zM924 2327c-21 0-40 8-54 22s-23 33-23 54v2302c0 21 9 40 23 54 13 14 33 22 54 22s40-8 53-22c14-14 23-33 23-54V2403c0-21-9-40-22-54h-1c-13-14-32-22-53-22zm4966 3036c-21 0-40 8-54 22s-22 33-22 54v304c0 21 8 40 22 54 14 13 33 22 54 22s40-9 54-22c14-14 22-33 22-54v-304c0-21-8-40-22-54s-33-22-54-22zm810-1793c-21 0-40 8-54 22s-22 33-22 54v3128c0 21 8 40 22 53 14 14 33 23 54 23s40-9 54-23c14-13 22-32 22-53V3646c0-21-8-40-22-54s-33-22-54-22zm-810-1651c-21 0-40 8-54 22s-22 33-22 54v2368c0 21 8 40 22 54s33 22 54 22 40-8 54-22 22-33 22-54V1995c0-21-8-40-22-54s-33-22-54-22zM4227 5649c21 0 40-8 54-22s23-33 23-54v-442c0-21-9-40-23-54s-33-22-54-22-40 8-54 22c-13 14-22 33-22 54v442c0 21 9 40 22 54 14 14 33 22 54 22zm1-1210c21 0 40-9 53-22 14-14 23-33 23-54V3258c0-21-9-40-23-54s-33-22-54-22-40 8-54 22c-13 14-22 33-22 54v1105c0 21 9 40 22 54 14 14 33 22 54 22h1zm-861-1555c21 0 41-9 54-22 14-14 23-33 23-54v-566c0-21-9-40-23-54-13-14-33-22-54-22s-40 8-53 22h-1c-13 14-22 33-22 54v566c0 21 9 40 23 54 13 13 32 22 53 22zm-927 3993H1000V5822c0-21-8-40-22-54s-33-22-54-22-40 8-54 22-22 33-22 54v1055H152V718h696v754c0 21 8 40 22 54s33 22 54 22 40-8 54-22 22-33 22-54V718h657v3341c0 21 9 40 23 54 13 14 32 22 54 22 21 0 40-8 53-22 14-14 23-33 23-54V718h666v6159h-36zm225-6725h626v1320c0 21 9 40 23 54 13 14 32 22 53 22s41-8 54-22c14-14 23-33 23-54V152h707v2454c0 21 9 40 22 54 14 13 33 22 54 22s40-9 54-22c14-14 23-33 23-54V152h662v6159H3444V3926c0-21-9-40-23-53v-1c-13-13-32-22-54-22-21 0-40 9-53 22v1c-14 13-23 32-23 53v2385h-662c-1-2053-1-4106 0-6159h36zm4761 7296H5972l-5-1060v-1c0-21-9-40-23-53-13-14-32-23-54-23-21 0-40 9-53 23-14 13-23 32-23 53v1055h-696V1283h1506v1465c0 21 8 40 22 54 14 13 33 22 54 22s40-9 54-22c14-14 22-33 22-54V1283h667c6 2055 13 4110 19 6165h-36z" style="fill:#000"/></svg>