<svg xmlns="http://www.w3.org/2000/svg" xml:space="preserve" width="304.599" height="262.524" style="shape-rendering:geometricPrecision;text-rendering:geometricPrecision;image-rendering:optimizeQuality;fill-rule:evenodd;clip-rule:evenodd" viewBox="0 0 9154 7890"><path d="M9154 1663c-2-21-13-41-29-55-15-15-36-24-59-24H7889V88c0-24-10-46-26-62s-38-26-62-26H4955c-12 0-24 2-34 7-11 4-20 10-29 19L26 4893l-1-1c-9 10-16 22-20 34-5 14-6 28-4 41l1 8v1563h176v-800l103 9c493 46 936 265 1267 596s551 774 596 1268l10 103h-970l-12-81c-37-233-148-443-309-603-160-159-370-269-604-304L2 6687v1115c0 24 10 46 26 62 15 16 37 26 62 26h5695c12 0 23-3 34-7 11-5 20-11 28-19l1207-1211c17-17 26-40 26-62 0-23-9-45-26-62h-1l1-1c-18-17-40-25-63-25-22 0-45 8-62 26L5872 7588V6404l1988-1988h1c17-17 25-39 25-62s-8-45-25-63l-1 1c-17-17-39-26-62-26-22 0-45 8-62 25v1L5872 6155V4991l3106-3106v2588l-904 907c-18 18-26 40-26 63 0 22 9 45 26 62s40 26 62 26c23 0 45-9 62-26l931-933c8-9 15-18 19-29 4-10 6-21 6-34V1672c0-4 1-1 0-3v-6zM7648 5980c-9-22-27-38-48-47s-45-10-67-1v1c-22 9-38 26-47 47s-10 45-1 67h1c9 22 26 39 47 47 21 9 46 10 68 1s38-27 47-48c8-21 9-45 0-67zM893 7714H185v-828l115 27c170 39 322 125 441 244s205 271 244 441l27 116H893zM178 5475v-432h2669v2671h-518l-7-88c-42-547-283-1040-650-1407-366-367-859-607-1407-650l-87-7v-87zm2845 2144V6054l105 11c407 44 772 228 1047 501 275 274 459 638 504 1043l12 105H3023v-95zm2579 95h-736l-8-86c-41-461-247-876-558-1186s-728-515-1191-556l-86-8v-836l623 1c427 0 965 294 1381 709 385 385 670 875 670 1336v626h-95zm-78-1636c-113-167-247-326-394-471-151-148-317-280-488-391l-267-173h1322v1294l-173-259zm185-1212H3148l3108-3106h1059L5994 3082c-18 17-26 39-26 62 0 22 8 45 25 62h1c16 17 39 25 62 25s45-8 62-25l1446-1446h1290C7819 2796 6784 3831 5748 4866h-39zm1818-3282H6432L7713 301v1283h-186zM5030 176h2559L2899 4866H1726l3313-3313c18-17 26-40 26-62 0-23-8-46-26-63-16-17-39-25-62-25-22 0-45 8-62 25L1478 4866H301L4991 176h39z" style="fill:#000"/></svg>