<svg xmlns="http://www.w3.org/2000/svg" xml:space="preserve" width="435.201" height="293.495" style="shape-rendering:geometricPrecision;text-rendering:geometricPrecision;image-rendering:optimizeQuality;fill-rule:evenodd;clip-rule:evenodd" viewBox="0 0 8110 5469"><defs><style>.fil0{fill:#000}</style></defs><g id="Слой_x0020_1"><path class="fil0" d="M3268 3295h-327l778-779c212-211 391-190 484-156l-935 935zM5739 127 4580 1286c-24 24-24 64 0 89 13 13 29 19 45 19s33-6 45-19L5918 127h518L4298 2265c-106-54-371-136-668 161l-868 869H1674L4841 127h265l-526 525c-24 25-24 65 0 90 13 12 29 19 45 19s33-7 45-19l615-615h454zm888 760-439 438 90 90 528-528h1087L4726 4055h-328l779-779c25-25 25-65 0-89-25-25-65-25-90 0l-869 868h-454l399-399c25-24 25-65 0-89-25-25-65-25-90 0l-488 488h-607c-35 0-64 28-64 63v507c0 35 29 64 64 64h1775l1-1h7c15-2 28-9 37-20l3292-3292c4-3 7-7 9-10v-1l1-1 1-1v-1l1-1 1-1v-1l1-1v-1l1-1v-2l1-1v-2l3-9c1-4 1-9 1-13V819l-1-1v-7h-1v-4h-1v-1l-1-3c0-1 0-2-1-3v-1c-4-10-11-19-20-25v-1l-2-1-1-1h-1v-1h-1l-1-1h-1v-1h-2v-1h-2v-1h-2l-1-1h-1l-1-1h-2l-1-1h-2l-1-1h-4v-1h-7l-1-1H6590c-35 0-64 29-64 64s29 63 64 63h37zM3610 4182h1078v380H3041v-380h569zM7983 977v327L4815 4472v-327L7983 977zM3310 782 19 4074c-13 12-19 29-19 46v505c0 35 28 64 63 64h1776l1-1h5c15-2 29-9 39-20l501-501c25-25 25-65 0-90-25-24-65-24-90 0l-394 395v-354c0-35-29-63-64-63H216L3384 887h75l-273 272c-24 25-24 65 0 90 13 12 29 18 45 18s33-6 45-18l362-362h164c35 0 63-29 63-64s-28-63-63-63h-444c-19 0-37 9-48 22zM1774 4562H127v-380h1647v380zm2576-2170c2-2 4-3 5-5L6526 216v328L3358 3712v-328l992-992zM6589 0H4816c-4 0-8 0-12 1-1 0-2 0-3 1h-3l-1 1h-2l-1 1h-1c-4 2-9 4-13 7-2 1-3 2-4 3h-1l-1 1-1 1-1 1-1 1-1 1-3294 3294-1 1-1 2-1 1h-1v1h-1v1l-1 1-1 1c-2 4-5 7-6 11-1 1-1 3-2 4v1l-1 1v1c-1 4-2 9-3 14v512c0 35 29 63 64 63h1781c16-2 29-9 39-20L6632 617c13-12 21-28 21-47V63c0-7-2-15-4-21l-1-2v-1l-1-2-1-1v-1l-1-1v-1l-1-1v-1l-1-1s-1-1-1-2l-1-1-1-1v-1l-1-1-1-1-1-1v-1h-1l-1-1-1-1-1-1v-1l-1-1c-1 0-2-1-3-2h-1v-1h-1c-8-6-17-10-27-12h-2l-1-1h-8zM3231 3802H1584v-381h1647v381z"/><path class="fil0" d="M3052 4836h-919l399-399c25-25 25-65 0-90-25-24-65-24-90 0l-488 489h-607c-35 0-64 28-64 63v507c0 35 29 63 64 63h1782l1-1c14-2 28-9 37-19l623-623h-179l-427 427v-311c-1-91-74-106-132-106zm-1073 126h1078v380H1410v-380h569z"/></g></svg>