<svg xmlns="http://www.w3.org/2000/svg" xml:space="preserve" width="529.281" height="131.649" style="shape-rendering:geometricPrecision;text-rendering:geometricPrecision;image-rendering:optimizeQuality;fill-rule:evenodd;clip-rule:evenodd" viewBox="0 0 13615 3386"><defs><style>.fil0{fill:#40372f;fill-rule:nonzero}</style></defs><g id="Слой_x0020_1"><path class="fil0" d="m1390 2097-79 252H696l-258-873-247-832-66-223-1-2L0 0h779l99 342 1 1v2l1 1v1l80 276zm1341 0-79 252h-614l-259-873-247-832-66-223-1-2L1341 0h779l100 342v1l1 2v2l81 276zM2697 0h762l80 274-89 283h-590z"/><path d="m4336 1290 79-253h614l259 873 247 832 66 223v2l124 419h-778l-100-342v-1l-1-1v-3l-81-276zm-1263 0 79-253h615l259 873 246 832 66 223 1 2 124 419h-778l-100-342-1-1v-3l-1-1-80-276zm34 2096h-761l-81-274 89-283h590z" style="fill:#b58b5b;fill-rule:nonzero"/><path class="fil0" d="M7263 194h106c7 0 12 3 13 9l111 399h7l101-399c2-6 6-9 12-9h91c7 0 11 3 13 9l107 396h7l106-395c2-7 6-10 12-10h102c8 0 12 4 9 13l-172 528c-2 7-8 11-17 11h-104c-7 0-12-3-14-10l-91-354h-7l-92 355c0 6-5 9-13 9h-106c-8 0-13-4-15-11l-175-529c-3-8 0-12 9-12zm574 1089h116c10 0 14 4 14 14v524c0 9-4 14-14 14h-89c-9 0-14-5-14-14v-201l5-151-6-1-81 209-63 148c-3 6-8 10-16 10h-69c-8 0-14-4-16-10l-60-148-83-210-6 1 5 152v201c0 9-5 14-14 14h-85c-10 0-15-5-15-14v-524c0-10 5-14 15-14h118c7 0 13 3 16 11l81 185 81 205h4l80-205 77-185c4-8 10-11 19-11zm-16 1362h88c10 0 14 5 14 15v271c0 10-4 14-14 14h-60c-8 0-14-3-16-10l-11-33c-39 34-91 51-156 51-81 0-147-26-199-80-51-54-77-122-77-205 0-81 28-149 82-202 55-54 123-81 204-81 48 0 94 12 138 35 45 22 79 54 103 93 4 6 4 12-2 16l-64 47c-6 6-13 6-19-3-40-51-92-76-156-76-51 0-91 15-122 47s-46 73-46 124c0 50 15 92 44 125 30 33 70 49 119 49 55 0 100-16 136-49v-133c0-10 4-15 14-15zM8852 297c-50 0-92 16-124 48-32 33-48 75-48 126 0 50 16 92 48 124 32 33 74 49 124 49s91-16 124-49c32-33 48-74 48-124 0-51-16-93-48-126-33-32-74-48-124-48zm-290 174c0-81 28-148 85-203 57-54 125-82 205-82 81 0 149 28 206 82 56 55 84 122 84 203 0 80-28 148-84 202-57 54-125 81-206 81s-149-27-206-81c-56-54-84-121-84-202zm467 1350-39-95h-275l-39 97c-3 8-9 12-17 12h-100c-11 0-14-5-11-14l240-530c2-5 6-8 13-8h115c7 0 11 3 13 8l228 528c2 4 1 8-1 11s-5 5-10 5h-96c-10 0-17-5-21-14zm-180-429-92 227h193l-89-227h-12zm-223 1001h249c62 0 113 20 155 58 41 39 62 87 62 144 0 36-9 69-26 99-18 30-42 53-71 70l87 167c2 4 2 7 0 10s-5 5-9 5h-100c-8 0-14-4-18-11l-68-137c-4 0-10 1-16 1h-142v132c0 10-4 15-14 15h-89c-9 0-14-5-14-15v-523c0-10 5-15 14-15zm103 294h146c31 0 56-8 73-26 18-17 26-39 26-66 0-26-8-48-26-65-17-17-42-25-73-25h-146v182zM9989 297c-51 0-92 16-124 48-33 33-49 75-49 126 0 50 16 92 49 124 32 33 73 49 124 49 50 0 91-16 123-49s48-74 48-124c0-51-16-93-48-126-32-32-73-48-123-48zm-291 174c0-81 28-148 85-203 57-54 125-82 206-82 80 0 148 28 205 82 56 55 84 122 84 203 0 80-28 148-84 202-57 54-125 81-205 81-81 0-150-27-207-81-56-54-84-121-84-202zm287 804c91 0 170 28 237 84 8 5 9 11 3 18l-51 63c-6 7-13 8-21 1-47-38-105-57-174-57-71 0-106 17-106 51 0 16 9 29 27 37 18 9 50 16 95 21 163 14 244 73 244 176 0 54-22 96-68 127-45 32-103 47-174 47-100 0-185-28-253-85-7-5-7-12-1-20l48-64c6-8 12-9 20-3 53 42 116 63 188 63 83 0 124-21 124-63 0-20-11-34-32-44s-58-17-109-22c-73-6-129-22-168-47-38-25-58-65-58-119 0-49 21-89 64-119 42-30 98-45 165-45zm4 1221c-51 0-92 16-124 49-33 32-49 74-49 125s16 92 49 125c32 32 73 48 124 48 50 0 91-16 123-49 32-32 48-74 48-124 0-51-16-93-48-125-32-33-73-49-123-49zm-291 174c0-80 28-148 85-202 57-55 125-82 206-82 80 0 148 27 205 82 56 54 84 122 84 202 0 81-28 148-84 202-57 55-125 82-205 82-81 0-150-27-207-81-56-54-84-122-84-203zm1287-2365v329h112c51 0 91-15 121-44 30-30 44-70 44-120 0-51-14-91-44-120-30-30-70-45-121-45h-112zm-103-111h215c80 0 147 26 202 78s82 118 82 198c0 81-27 147-82 199-55 51-122 77-202 77h-215c-10 0-15-5-15-14V208c0-9 5-14 15-14zm7 1089h470c10 0 14 4 14 14v83c0 9-4 14-14 14h-176v427c0 9-5 14-14 14h-89c-10 0-15-5-15-14v-427h-176c-9 0-14-5-14-14v-83c0-10 5-14 14-14zm-13 1414v-295c0-9 5-14 15-14h89c9 0 14 5 14 14v294c0 42 11 76 34 102s54 39 96 39c40 0 72-13 95-38 24-25 35-60 35-103v-294c0-9 5-14 14-14h90c9 0 14 5 14 14v295c0 73-23 133-68 180-45 48-105 71-180 71s-135-23-180-71c-45-47-68-107-68-180zm1171-1414h410c9 0 14 4 14 14v81c0 9-5 14-14 14h-307v103h269c10 0 15 5 15 15v81c0 9-5 14-15 14h-269v119h315c9 0 14 5 14 14v83c0 9-5 14-14 14h-418c-10 0-15-5-15-14v-524c0-4 2-8 5-10 3-3 6-4 10-4zm87 1404h147c30 0 54-8 71-25s26-39 26-67c0-27-9-49-26-65-17-17-41-25-71-25h-147v182zm-104-294h251c60 0 111 20 153 59 41 39 61 86 61 143 0 59-20 107-61 146-41 38-92 58-153 58h-147v132c0 10-5 15-15 15h-89c-9 0-14-5-14-15v-523c0-10 5-15 14-15zm1119-1110h249c62 0 113 19 155 57 41 39 62 87 62 144 0 36-9 69-26 99-18 30-42 53-71 70l87 168c2 3 2 6 0 9s-5 5-9 5h-100c-8 0-14-4-18-10l-68-138c-4 0-10 1-16 1h-142v133c0 9-4 14-14 14h-89c-9 0-14-5-14-14v-524c0-10 5-14 14-14zm103 293h146c31 0 56-8 73-25 18-18 26-40 26-67 0-26-8-48-26-65-17-17-42-25-73-25h-146v182z"/></g></svg>