<?xml version="1.0" encoding="UTF-8"?>
<!DOCTYPE svg PUBLIC "-//W3C//DTD SVG 1.1//EN" "http://www.w3.org/Graphics/SVG/1.1/DTD/svg11.dtd">
<!-- Creator: CorelDRAW X8 -->
<svg xmlns="http://www.w3.org/2000/svg" xml:space="preserve" width="140.039mm" height="34.8321mm" version="1.1" style="shape-rendering:geometricPrecision; text-rendering:geometricPrecision; image-rendering:optimizeQuality; fill-rule:evenodd; clip-rule:evenodd"
viewBox="0 0 13615 3386"
 xmlns:xlink="http://www.w3.org/1999/xlink">
 <defs>
  <style type="text/css">
   <![CDATA[
    .fil0 {fill:#40372F;fill-rule:nonzero}
    .fil1 {fill:#B58B5B;fill-rule:nonzero}
   ]]>
  </style>
 </defs>
 <g id="Слой_x0020_1">
  <metadata id="CorelCorpID_0Corel-Layer"/>
  <polygon class="fil0" points="1390,2097 1311,2349 696,2349 438,1476 438,1476 191,644 125,421 124,419 0,0 779,0 878,342 879,343 879,345 880,346 880,347 960,623 "/>
  <polygon class="fil0" points="2731,2097 2652,2349 2038,2349 1779,1476 1779,1476 1532,644 1466,421 1465,419 1341,0 2120,0 2220,342 2220,343 2221,345 2221,346 2221,347 2302,623 "/>
  <polygon class="fil0" points="2697,0 3459,0 3539,274 3450,557 2860,557 "/>
  <polygon class="fil1" points="4336,1290 4415,1037 5029,1037 5288,1910 5288,1910 5535,2742 5601,2965 5601,2967 5725,3386 4947,3386 4847,3044 4847,3043 4846,3042 4846,3040 4846,3039 4765,2763 "/>
  <polygon class="fil1" points="3073,1290 3152,1037 3767,1037 4026,1910 4026,1910 4272,2742 4338,2965 4339,2967 4463,3386 3685,3386 3585,3044 3584,3043 3584,3042 3584,3040 3583,3039 3503,2763 "/>
  <polygon class="fil1" points="3107,3386 2346,3386 2265,3112 2354,2829 2944,2829 "/>
  <path class="fil0" d="M7263 194l106 0c7,0 12,3 13,9l111 399 7 0 101 -399c2,-6 6,-9 12,-9l91 0c7,0 11,3 13,9l107 396 7 0 106 -395c2,-7 6,-10 12,-10l102 0c8,0 12,4 9,13l-172 528c-2,7 -8,11 -17,11l-104 0c-7,0 -12,-3 -14,-10l-91 -354 -7 0 -92 355c0,6 -5,9 -13,9l-106 0c-8,0 -13,-4 -15,-11l-175 -529c-3,-8 0,-12 9,-12z"/>
  <path class="fil0" d="M7837 1283l116 0c10,0 14,4 14,14l0 524c0,9 -4,14 -14,14l-89 0c-9,0 -14,-5 -14,-14l0 -201 5 -151 -6 -1 -81 209 -63 148c-3,6 -8,10 -16,10l-69 0c-8,0 -14,-4 -16,-10l-60 -148 -83 -210 -6 1 5 152 0 201c0,9 -5,14 -14,14l-85 0c-10,0 -15,-5 -15,-14l0 -524c0,-10 5,-14 15,-14l118 0c7,0 13,3 16,11l81 185 81 205 4 0 80 -205 77 -185c4,-8 10,-11 19,-11z"/>
  <path class="fil0" d="M7821 2645l88 0c10,0 14,5 14,15l0 271c0,10 -4,14 -14,14l-60 0c-8,0 -14,-3 -16,-10l-11 -33c-39,34 -91,51 -156,51 -81,0 -147,-26 -199,-80 -51,-54 -77,-122 -77,-205 0,-81 28,-149 82,-202 55,-54 123,-81 204,-81 48,0 94,12 138,35 45,22 79,54 103,93 4,6 4,12 -2,16l-64 47c-6,6 -13,6 -19,-3 -40,-51 -92,-76 -156,-76 -51,0 -91,15 -122,47 -31,32 -46,73 -46,124 0,50 15,92 44,125 30,33 70,49 119,49 55,0 100,-16 136,-49l0 -133c0,-10 4,-15 14,-15z"/>
  <path class="fil0" d="M8852 297c-50,0 -92,16 -124,48 -32,33 -48,75 -48,126 0,50 16,92 48,124 32,33 74,49 124,49 50,0 91,-16 124,-49 32,-33 48,-74 48,-124 0,-51 -16,-93 -48,-126 -33,-32 -74,-48 -124,-48zm-290 174c0,-81 28,-148 85,-203 57,-54 125,-82 205,-82 81,0 149,28 206,82 56,55 84,122 84,203 0,80 -28,148 -84,202 -57,54 -125,81 -206,81 -81,0 -149,-27 -206,-81 -56,-54 -84,-121 -84,-202z"/>
  <path class="fil0" d="M9029 1821l-39 -95 -275 0 -39 97c-3,8 -9,12 -17,12l-100 0c-11,0 -14,-5 -11,-14l240 -530c2,-5 6,-8 13,-8l115 0c7,0 11,3 13,8l228 528c2,4 1,8 -1,11 -2,3 -5,5 -10,5l-96 0c-10,0 -17,-5 -21,-14zm-180 -429l-92 227 193 0 -89 -227 -12 0z"/>
  <path class="fil0" d="M8626 2393l249 0c62,0 113,20 155,58 41,39 62,87 62,144 0,36 -9,69 -26,99 -18,30 -42,53 -71,70l87 167c2,4 2,7 0,10 -2,3 -5,5 -9,5l-100 0c-8,0 -14,-4 -18,-11l-68 -137c-4,0 -10,1 -16,1l-142 0 0 132c0,10 -4,15 -14,15l-89 0c-9,0 -14,-5 -14,-15l0 -523c0,-10 5,-15 14,-15zm103 294l146 0c31,0 56,-8 73,-26 18,-17 26,-39 26,-66 0,-26 -8,-48 -26,-65 -17,-17 -42,-25 -73,-25l-146 0 0 182z"/>
  <path class="fil0" d="M9989 297c-51,0 -92,16 -124,48 -33,33 -49,75 -49,126 0,50 16,92 49,124 32,33 73,49 124,49 50,0 91,-16 123,-49 32,-33 48,-74 48,-124 0,-51 -16,-93 -48,-126 -32,-32 -73,-48 -123,-48zm-291 174c0,-81 28,-148 85,-203 57,-54 125,-82 206,-82 80,0 148,28 205,82 56,55 84,122 84,203 0,80 -28,148 -84,202 -57,54 -125,81 -205,81 -81,0 -150,-27 -207,-81 -56,-54 -84,-121 -84,-202z"/>
  <path class="fil0" d="M9985 1275c91,0 170,28 237,84 8,5 9,11 3,18l-51 63c-6,7 -13,8 -21,1 -47,-38 -105,-57 -174,-57 -71,0 -106,17 -106,51 0,16 9,29 27,37 18,9 50,16 95,21 163,14 244,73 244,176 0,54 -22,96 -68,127 -45,32 -103,47 -174,47 -100,0 -185,-28 -253,-85 -7,-5 -7,-12 -1,-20l48 -64c6,-8 12,-9 20,-3 53,42 116,63 188,63 83,0 124,-21 124,-63 0,-20 -11,-34 -32,-44 -21,-10 -58,-17 -109,-22 -73,-6 -129,-22 -168,-47 -38,-25 -58,-65 -58,-119 0,-49 21,-89 64,-119 42,-30 98,-45 165,-45z"/>
  <path class="fil0" d="M9989 2496c-51,0 -92,16 -124,49 -33,32 -49,74 -49,125 0,51 16,92 49,125 32,32 73,48 124,48 50,0 91,-16 123,-49 32,-32 48,-74 48,-124 0,-51 -16,-93 -48,-125 -32,-33 -73,-49 -123,-49zm-291 174c0,-80 28,-148 85,-202 57,-55 125,-82 206,-82 80,0 148,27 205,82 56,54 84,122 84,202 0,81 -28,148 -84,202 -57,55 -125,82 -205,82 -81,0 -150,-27 -207,-81 -56,-54 -84,-122 -84,-203z"/>
  <path class="fil0" d="M10985 305l0 329 112 0c51,0 91,-15 121,-44 30,-30 44,-70 44,-120 0,-51 -14,-91 -44,-120 -30,-30 -70,-45 -121,-45l-112 0zm-103 -111l215 0c80,0 147,26 202,78 55,52 82,118 82,198 0,81 -27,147 -82,199 -55,51 -122,77 -202,77l-215 0c-10,0 -15,-5 -15,-14l0 -524c0,-9 5,-14 15,-14z"/>
  <path class="fil0" d="M10889 1283l470 0c10,0 14,4 14,14l0 83c0,9 -4,14 -14,14l-176 0 0 427c0,9 -5,14 -14,14l-89 0c-10,0 -15,-5 -15,-14l0 -427 -176 0c-9,0 -14,-5 -14,-14l0 -83c0,-10 5,-14 14,-14z"/>
  <path class="fil0" d="M10876 2697l0 -295c0,-9 5,-14 15,-14l89 0c9,0 14,5 14,14l0 294c0,42 11,76 34,102 23,26 54,39 96,39 40,0 72,-13 95,-38 24,-25 35,-60 35,-103l0 -294c0,-9 5,-14 14,-14l90 0c9,0 14,5 14,14l0 295c0,73 -23,133 -68,180 -45,48 -105,71 -180,71 -75,0 -135,-23 -180,-71 -45,-47 -68,-107 -68,-180z"/>
  <path class="fil0" d="M12047 1283l410 0c9,0 14,4 14,14l0 81c0,9 -5,14 -14,14l-307 0 0 103 269 0c10,0 15,5 15,15l0 81c0,9 -5,14 -15,14l-269 0 0 119 315 0c9,0 14,5 14,14l0 83c0,9 -5,14 -14,14l-418 0c-10,0 -15,-5 -15,-14l0 -524c0,-4 2,-8 5,-10 3,-3 6,-4 10,-4z"/>
  <path class="fil0" d="M12134 2687l147 0c30,0 54,-8 71,-25 17,-17 26,-39 26,-67 0,-27 -9,-49 -26,-65 -17,-17 -41,-25 -71,-25l-147 0 0 182zm-104 -294l251 0c60,0 111,20 153,59 41,39 61,86 61,143 0,59 -20,107 -61,146 -41,38 -92,58 -153,58l-147 0 0 132c0,10 -5,15 -15,15l-89 0c-9,0 -14,-5 -14,-15l0 -523c0,-10 5,-15 14,-15z"/>
  <path class="fil0" d="M13149 1283l249 0c62,0 113,19 155,57 41,39 62,87 62,144 0,36 -9,69 -26,99 -18,30 -42,53 -71,70l87 168c2,3 2,6 0,9 -2,3 -5,5 -9,5l-100 0c-8,0 -14,-4 -18,-10l-68 -138c-4,0 -10,1 -16,1l-142 0 0 133c0,9 -4,14 -14,14l-89 0c-9,0 -14,-5 -14,-14l0 -524c0,-10 5,-14 14,-14zm103 293l146 0c31,0 56,-8 73,-25 18,-18 26,-40 26,-67 0,-26 -8,-48 -26,-65 -17,-17 -42,-25 -73,-25l-146 0 0 182z"/>
 </g>
</svg>
