<?xml version="1.0" encoding="UTF-8"?>
<!DOCTYPE svg PUBLIC "-//W3C//DTD SVG 1.1//EN" "http://www.w3.org/Graphics/SVG/1.1/DTD/svg11.dtd">
<!-- Creator: CorelDRAW X8 -->
<svg xmlns="http://www.w3.org/2000/svg" xml:space="preserve" width="135.466mm" height="99.9695mm" version="1.1" style="shape-rendering:geometricPrecision; text-rendering:geometricPrecision; image-rendering:optimizeQuality; fill-rule:evenodd; clip-rule:evenodd"
viewBox="0 0 14083 10393"
 xmlns:xlink="http://www.w3.org/1999/xlink">
 <defs>
  <style type="text/css">
   <![CDATA[
    .fil0 {fill:black}
   ]]>
  </style>
 </defs>
 <g id="Слой_x0020_1">
  <metadata id="CorelCorpID_0Corel-Layer"/>
  <path class="fil0" d="M7042 9513l-6602 0c-243,0 -440,197 -440,440 0,243 197,440 440,440l6602 0c243,0 440,-197 440,-440 0,-243 -197,-440 -440,-440l0 0z"/>
  <path class="fil0" d="M13643 4536l-13203 0c-243,0 -440,197 -440,440 0,243 197,440 440,440l13203 0c243,0 440,-197 440,-440 0,-243 -197,-440 -440,-440z"/>
  <path class="fil0" d="M0 440c0,-243 197,-440 440,-440l13203 0c243,0 440,197 440,440 0,243 -197,440 -440,440l-13203 0c-243,0 -440,-197 -440,-440l0 0z"/>
 </g>
</svg>
