<?xml version="1.0" encoding="UTF-8"?>
<!DOCTYPE svg PUBLIC "-//W3C//DTD SVG 1.1//EN" "http://www.w3.org/Graphics/SVG/1.1/DTD/svg11.dtd">
<!-- Creator: CorelDRAW X8 -->
<svg xmlns="http://www.w3.org/2000/svg" xml:space="preserve" width="103.458mm" height="103.46mm" version="1.1" style="shape-rendering:geometricPrecision; text-rendering:geometricPrecision; image-rendering:optimizeQuality; fill-rule:evenodd; clip-rule:evenodd"
viewBox="0 0 7595 7595"
 xmlns:xlink="http://www.w3.org/1999/xlink">
 <defs>
  <style type="text/css">
   <![CDATA[
    .fil0 {fill:black}
   ]]>
  </style>
 </defs>
 <g id="Слой_x0020_1">
  <metadata id="CorelCorpID_0Corel-Layer"/>
  <path class="fil0" d="M7519 1131l-2401 0 0 -1055c0,-21 -8,-40 -22,-54l0 0c-14,-13 -33,-22 -54,-22l-2489 0c-22,0 -41,9 -54,22l0 0c-14,14 -23,33 -23,54l0 490 -2400 0c-21,0 -40,8 -54,22 -13,14 -22,33 -22,54l0 6311c0,21 9,40 22,54 14,14 33,22 54,22l2477 0c21,0 40,-8 53,-22l0 0c14,-14 23,-33 23,-54l0 -489 2337 0 0 1055c0,21 9,40 22,53l0 1c14,13 33,22 54,22l0 0 2474 0 1 0 2 0c21,0 40,-9 53,-23 14,-13 23,-32 23,-53l0 -6312c0,-21 -9,-40 -23,-54 -13,-13 -32,-22 -53,-22zm-5786 4003c-21,0 -40,8 -54,22 -13,14 -22,33 -22,54l0 0 0 565c0,22 9,41 23,54 13,14 32,23 53,23 21,0 40,-9 54,-23l0 0c14,-13 23,-32 23,-54l0 0 0 -565 0 0c0,-21 -9,-40 -23,-54l0 0c-13,-13 -32,-22 -52,-22l-2 0zm-809 -2807c-21,0 -40,8 -54,22l0 0c-14,14 -23,33 -23,54l0 0 0 2302c0,21 9,40 23,54l0 0c13,14 33,22 54,22 21,0 40,-8 53,-22 14,-14 23,-33 23,-54l0 0 0 -2302 0 0c0,-21 -9,-40 -22,-54l-1 0c-13,-14 -32,-22 -53,-22l0 0zm4966 3036c-21,0 -40,8 -54,22 -14,14 -22,33 -22,54l0 0 0 304c0,21 8,40 22,54l0 0c14,13 33,22 54,22 21,0 40,-9 54,-22 14,-14 22,-33 22,-54l0 -304c0,-21 -8,-40 -22,-54l0 0c-14,-14 -33,-22 -54,-22l0 0zm810 -1793c-21,0 -40,8 -54,22l0 0c-14,14 -22,33 -22,54l0 3128c0,21 8,40 22,53l0 0c14,14 33,23 54,23 21,0 40,-9 54,-23 14,-13 22,-32 22,-53l0 -3128c0,-21 -8,-40 -22,-54 -14,-14 -33,-22 -54,-22zm-810 -1651c-21,0 -40,8 -54,22l0 0c-14,14 -22,33 -22,54l0 2368 0 0c0,21 8,40 22,54l0 0c14,14 33,22 54,22 21,0 40,-8 54,-22 14,-14 22,-33 22,-54l0 -2368c0,-21 -8,-40 -22,-54l0 0c-14,-14 -33,-22 -54,-22l0 0zm-1663 3730l0 0c21,0 40,-8 54,-22l0 0c14,-14 23,-33 23,-54l0 -442c0,-21 -9,-40 -23,-54 -14,-14 -33,-22 -54,-22 -21,0 -40,8 -54,22l0 0c-13,14 -22,33 -22,54l0 442c0,21 9,40 22,54l0 0c14,14 33,22 54,22zm1 -1210c21,0 40,-9 53,-22 14,-14 23,-33 23,-54l0 -1105c0,-21 -9,-40 -23,-54 -14,-14 -33,-22 -54,-22 -21,0 -40,8 -54,22l0 0c-13,14 -22,33 -22,54l0 1105c0,21 9,40 22,54l0 0c14,14 33,22 54,22l1 0zm-861 -1555c21,0 41,-9 54,-22 14,-14 23,-33 23,-54l0 -566c0,-21 -9,-40 -23,-54l0 0c-13,-14 -33,-22 -54,-22 -21,0 -40,8 -53,22l-1 0c-13,14 -22,33 -22,54l0 566c0,21 9,40 23,54 13,13 32,22 53,22zm-927 3993l-1440 0 0 -1055c0,-21 -8,-40 -22,-54l0 0c-14,-14 -33,-22 -54,-22 -21,0 -40,8 -54,22 -14,14 -22,33 -22,54l0 1055 -696 0 0 -6159 696 0 0 754c0,21 8,40 22,54l0 0c14,14 33,22 54,22 21,0 40,-8 54,-22 14,-14 22,-33 22,-54l0 0 0 -754 657 0 0 3341c0,21 9,40 23,54l0 0c13,14 32,22 54,22 21,0 40,-8 53,-22 14,-14 23,-33 23,-54l0 0 0 -3341 666 0 0 6159 -36 0zm225 -6725l626 0 0 1320c0,21 9,40 23,54l0 0c13,14 32,22 53,22 21,0 41,-8 54,-22 14,-14 23,-33 23,-54l0 -1320 707 0 0 2454c0,21 9,40 22,54 14,13 33,22 54,22 21,0 40,-9 54,-22 14,-14 23,-33 23,-54l0 -2454 662 0 0 6159 -1522 0 0 -2385c0,-21 -9,-40 -23,-53l0 -1c-13,-13 -32,-22 -54,-22 -21,0 -40,9 -53,22l0 1c-14,13 -23,32 -23,53l0 2385 -662 0c-1,-2053 -1,-4106 0,-6159l36 0zm4761 7296l-1454 0 -5 -1060 0 -1c0,-21 -9,-40 -23,-53 -13,-14 -32,-23 -54,-23 -21,0 -40,9 -53,23 -14,13 -23,32 -23,53l0 1055 -696 0 0 -6159 1506 0 0 1465c0,21 8,40 22,54l0 0c14,13 33,22 54,22 21,0 40,-9 54,-22l0 0c14,-14 22,-33 22,-54l0 -1465 667 0c6,2055 13,4110 19,6165l-36 0z"/>
 </g>
</svg>
