<?xml version="1.0" encoding="UTF-8"?>
<!DOCTYPE svg PUBLIC "-//W3C//DTD SVG 1.1//EN" "http://www.w3.org/Graphics/SVG/1.1/DTD/svg11.dtd">
<!-- Creator: CorelDRAW X8 -->
<svg xmlns="http://www.w3.org/2000/svg" xml:space="preserve" width="80.5919mm" height="69.4595mm" version="1.1" style="shape-rendering:geometricPrecision; text-rendering:geometricPrecision; image-rendering:optimizeQuality; fill-rule:evenodd; clip-rule:evenodd"
viewBox="0 0 9154 7890"
 xmlns:xlink="http://www.w3.org/1999/xlink">
 <defs>
  <style type="text/css">
   <![CDATA[
    .fil0 {fill:black}
   ]]>
  </style>
 </defs>
 <g id="Слой_x0020_1">
  <metadata id="CorelCorpID_0Corel-Layer"/>
  <path class="fil0" d="M9154 1663c-2,-21 -13,-41 -29,-55 -15,-15 -36,-24 -59,-24l-1177 0 0 -1496c0,-24 -10,-46 -26,-62 -16,-16 -38,-26 -62,-26l-2846 0c-12,0 -24,2 -34,7 -11,4 -20,10 -29,19l-4866 4867 -1 -1c-9,10 -16,22 -20,34 -5,14 -6,28 -4,41l1 8 0 1563 176 0 0 -800 103 9c493,46 936,265 1267,596 331,331 551,774 596,1268l10 103 -970 0 -12 -81c-37,-233 -148,-443 -309,-603 -160,-159 -370,-269 -604,-304l-257 -39 0 1115c0,24 10,46 26,62 15,16 37,26 62,26l0 0 5695 0 0 0c12,0 23,-3 34,-7 11,-5 20,-11 28,-19l1207 -1211c17,-17 26,-40 26,-62 0,-23 -9,-45 -26,-62l-1 0 1 -1c-18,-17 -40,-25 -63,-25 -22,0 -45,8 -62,26l0 0 0 0 -1057 1059 0 -1184 1988 -1988 1 0c17,-17 25,-39 25,-62 0,-23 -8,-45 -25,-63l-1 1c-17,-17 -39,-26 -62,-26 -22,0 -45,8 -62,25l0 1 -1864 1863 0 -1164 3106 -3106 0 2588 -904 907c-18,18 -26,40 -26,63 0,22 9,45 26,62 17,17 40,26 62,26 23,0 45,-9 62,-26l931 -933c8,-9 15,-18 19,-29 4,-10 6,-21 6,-34l0 -2837c0,-4 1,-1 0,-3 0,-2 0,-4 0,-6zm-1506 4317c-9,-22 -27,-38 -48,-47l0 0c-21,-9 -45,-10 -67,-1l0 0 0 1c-22,9 -38,26 -47,47 -9,21 -10,45 -1,67l0 0 1 0c9,22 26,39 47,47 21,9 46,10 68,1l0 0 0 0c22,-9 38,-27 47,-48 8,-21 9,-45 0,-67l0 0 0 0zm-6755 1734l-708 0 0 -828 115 27c170,39 322,125 441,244 119,119 205,271 244,441l27 116 -119 0zm-715 -2239l0 -432 2669 0 0 2671 -518 0 -7 -88c-42,-547 -283,-1040 -650,-1407 -366,-367 -859,-607 -1407,-650l-87 -7 0 -87zm2845 2144l0 -1565 105 11c407,44 772,228 1047,501 275,274 459,638 504,1043l12 105 -1668 0 0 -95zm2579 95l-736 0 -8 -86c-41,-461 -247,-876 -558,-1186 -311,-310 -728,-515 -1191,-556l-86 -8 0 -836 623 1c427,0 965,294 1381,709 385,385 670,875 670,1336l0 626 -95 0zm-78 -1636c-113,-167 -247,-326 -394,-471 -151,-148 -317,-280 -488,-391l-267 -173 1322 0 0 1294 -173 -259zm185 -1212l-2561 0 3108 -3106 1059 0 -1321 1322c-18,17 -26,39 -26,62 0,22 8,45 25,62l1 0c16,17 39,25 62,25 23,0 45,-8 62,-25l0 0 1446 -1446 1290 0c-1035,1036 -2070,2071 -3106,3106l-39 0zm1818 -3282l-1095 0 1281 -1283 0 1283 -186 0zm-2497 -1408l2559 0 -4690 4690 -1173 0 3313 -3313c18,-17 26,-40 26,-62 0,-23 -8,-46 -26,-63 -16,-17 -39,-25 -62,-25 -22,0 -45,8 -62,25l0 0 -3437 3438 -1177 0c1563,-1563 3127,-3127 4690,-4690l39 0z"/>
 </g>
</svg>
