<?xml version="1.0" encoding="UTF-8"?>
<!DOCTYPE svg PUBLIC "-//W3C//DTD SVG 1.1//EN" "http://www.w3.org/Graphics/SVG/1.1/DTD/svg11.dtd">
<!-- Creator: CorelDRAW X8 -->
<svg xmlns="http://www.w3.org/2000/svg" xml:space="preserve" width="115.147mm" height="77.6538mm" version="1.1" style="shape-rendering:geometricPrecision; text-rendering:geometricPrecision; image-rendering:optimizeQuality; fill-rule:evenodd; clip-rule:evenodd"
viewBox="0 0 8110 5469"
 xmlns:xlink="http://www.w3.org/1999/xlink">
 <defs>
  <style type="text/css">
   <![CDATA[
    .fil0 {fill:black}
   ]]>
  </style>
 </defs>
 <g id="Слой_x0020_1">
  <metadata id="CorelCorpID_0Corel-Layer"/>
  <path class="fil0" d="M3268 3295l-327 0 778 -779c212,-211 391,-190 484,-156l-935 935zm2471 -3168l-1159 1159c-24,24 -24,64 0,89 13,13 29,19 45,19 16,0 33,-6 45,-19l1248 -1248 518 0 -2138 2138c-106,-54 -371,-136 -668,161l-868 869 -1088 0 3167 -3168 265 0 -526 525c-24,25 -24,65 0,90 13,12 29,19 45,19 16,0 33,-7 45,-19l615 -615 454 0zm888 760l-439 438 90 90 528 -528 1087 0 -3167 3168 -328 0 779 -779c25,-25 25,-65 0,-89 -25,-25 -65,-25 -90,0l-869 868 -454 0 399 -399c25,-24 25,-65 0,-89 -25,-25 -65,-25 -90,0l-488 488 -607 0c-35,0 -64,28 -64,63l0 507c0,35 29,64 64,64l1774 0 1 0 0 0 0 0 1 -1 1 0 0 0 1 0 0 0 1 0 0 0 1 0 0 0 1 0 0 0 0 0 1 0 1 0c15,-2 28,-9 37,-20l3292 -3292c4,-3 7,-7 9,-10l0 -1 1 -1 0 0 1 -1 0 0 0 -1 0 0 1 -1 0 0 1 -1 0 0 0 -1 1 -1 0 -1 0 0 1 -1 0 -1 0 -1 0 0 1 -1 0 -1 0 0 0 -1c1,-3 2,-6 3,-9l0 0c1,-4 1,-9 1,-13l0 -504 0 -1 0 0 0 0 0 0c0,-1 0,-2 0,-3l0 0 0 -1 0 0 0 0 0 -1 0 0 0 0 0 0 0 0 0 0 -1 -1 0 -1 0 0 0 -1 0 0 0 0 0 -1 0 -1 0 0 0 0 0 0 0 0 0 0 0 0 0 0 0 0 0 0 0 0 0 0 0 -1 0 0 0 0 0 0 0 0 0 0 0 0 0 0 0 0 0 0 0 0 0 0 0 -1 0 0 0 0 0 0 0 0 0 0 0 0 0 0 0 0 0 0 0 0 0 -1 0 0 0 0 0 0 0 0 -1 0 0 0 0 0 0 -1 0 0 0 0 0 0 0 0 0 0 0 0 0 0 0 0 0 0 0 0 0 -1 0 0 0 0 0 0 0 0 0 0 0 0 0 0 0 0 0 0 0 0 0 0 0 -1 0 0 0 0 0 0 0 0 0 0 0 -1 0 0 0 0 0 0 0 0 0 0 0 0 -1 0 0 0 0 -1 0 0 0 0 -1 -3 0 0 0 0c0,-1 0,-2 -1,-3l0 -1c-4,-10 -11,-19 -20,-25l0 -1 -2 -1 -1 -1 0 0 0 0 -1 0 0 -1 -1 0 0 0 -1 -1 0 0 0 0 -1 0 0 0 0 0 0 0 0 0 0 0 0 0 0 0 0 0 0 0 0 0 0 -1 -1 0 0 0 0 0 0 0 0 0 0 0 0 0 0 0 0 0 0 0 0 0 0 0 0 0 -1 0 0 0 0 0 0 0 0 0 0 0 0 0 0 0 0 0 0 -1 0 0 0 0 -1 0 0 0 0 0 0 0 0 0 0 0 0 0 0 0 0 0 0 0 0 0 0 0 0 0 0 0 0 0 -1 0 0 0 0 0 0 0 0 0 0 0 0 0 0 0 0 0 0 -1 0 0 0 0 -1 0 0 0 -1 0 0 0 -1 -1 -1 0 0 0 -1 -1 -1 0 -1 0 0 0 -1 -1 -1 0 -1 0 0 0 -1 -1 -1 0 -1 0 0 0 -1 0 -1 0 0 0 0 -1 -1 0 0 0 -2 0 0 0 0 0 -1 0 0 0 0 0 -1 0 0 0 0 0 -1 0 0 0 0 0 0 0 0 0 0 0 0 0 -1 0 -1 -1 0 0 0 0 0 0c-2,0 -4,0 -6,0l-1455 0c-35,0 -64,29 -64,64 0,35 29,63 64,63l37 0zm-3017 3295l1 0 2 0 1075 0 0 380 -1647 0 0 -380 569 0zm4373 -3205l0 327 -3168 3168 0 -327 3168 -3168zm-4673 -195l-3291 3292c-13,12 -19,29 -19,46l0 505c0,35 28,64 63,64l1774 0 0 0 1 0 1 0 0 0 1 -1 0 0 1 0 0 0 1 0 0 0 1 0 0 0 1 0 1 0c15,-2 29,-9 39,-20l501 -501c25,-25 25,-65 0,-90 -25,-24 -65,-24 -90,0l-394 395 0 -354c0,-35 -29,-63 -64,-63l-1621 0 3168 -3168 75 0 -273 272c-24,25 -24,65 0,90 13,12 29,18 45,18 16,0 33,-6 45,-18l362 -362 164 0c35,0 63,-29 63,-64 0,-35 -28,-63 -63,-63l-444 0c-19,0 -37,9 -48,22zm-1536 3780l-1647 0 0 -380 1647 0 0 380zm2576 -2170c2,-2 4,-3 5,-5l2171 -2171 0 328 -3168 3168 0 -328 992 -992zm2239 -2392l0 0 0 0 0 0 0 0 -1 0 0 0 0 0 -695 0 -2 0 -631 0 -2 0 -442 0c-4,0 -8,0 -12,1l0 0c-1,0 -2,0 -3,1l0 0 -1 0 -1 0 0 0 -1 0 -1 1 -1 0 0 0 -1 0 0 0 -1 1 -1 0 0 0c-4,2 -9,4 -13,7l0 0c-2,1 -3,2 -4,3l0 0 -1 0 0 0 -1 1 0 0 -1 1 0 0 -1 1 -1 1 -1 1 0 0 -3294 3294 0 0 0 0 -1 1 0 0 -1 2 -1 1 -1 0 0 1 -1 0 0 1 -1 1 0 0 -1 1 0 0c-2,4 -5,7 -6,11l0 0c-1,1 -1,3 -2,4l0 0 0 1 0 0 -1 1 0 1c-1,4 -2,9 -3,14l0 2 0 0c0,1 0,2 0,3l0 507c0,35 29,63 64,63l1774 0 0 0 1 0 0 0 1 0 1 0 0 0 0 0 1 0 0 0 1 0 1 0 0 0 0 0 1 0c16,-2 29,-9 39,-20l3291 -3291c13,-12 21,-28 21,-47l0 -505 0 -2c0,-7 -2,-15 -4,-21l0 0 -1 -2 0 -1 0 0 -1 -2 0 0 -1 -1 0 0 0 -1 0 0 -1 -1 0 -1 -1 -1 0 0 0 -1 -1 -1 0 0c0,0 -1,-1 -1,-2l-1 -1 0 0 -1 -1 0 -1 0 0 -1 -1 0 0 -1 -1 0 0 -1 -1 0 0 0 -1 -1 0 0 0 -1 -1 0 0 -1 -1 -1 -1 0 -1 0 0 -1 -1 0 0c-1,0 -2,-1 -3,-2l-1 0 0 -1 -1 0c-8,-6 -17,-10 -27,-12l0 0 0 0 -1 0 0 0 0 0 0 0 0 0 0 0 -1 0 0 0 0 0 0 0 0 0 -1 -1 0 0 0 0 -1 0 0 0 0 0 0 0 -2 0 -1 0 0 0 0 0 0 0 -1 0 0 0 0 0 0 0 0 0 0 0 0 0 -1 0 0 0 -1 0 0 0 0 0 0 0 0 0 -1 0 0 0 0 0zm-3358 3802l-1647 0 0 -381 1647 0 0 381z"/>
  <path class="fil0" d="M3052 4836c-307,0 -610,0 -919,0l399 -399c25,-25 25,-65 0,-90 -25,-24 -65,-24 -90,0l-488 489 -607 0c-35,0 -64,28 -64,63l0 507c0,35 29,63 64,63l1774 0 0 0 1 0 0 0 1 0 1 0 0 0 0 0 1 0 1 0 0 0 1 0 0 0 0 0 1 0 0 0 1 0 1 -1c14,-2 28,-9 37,-19l623 -623 -179 0 -427 427 0 -311c-1,-91 -74,-106 -132,-106zm-1073 126l1 0 2 0 1075 0 0 380 -1647 0 0 -380 569 0z"/>
 </g>
</svg>
